<svg width="60" height="60" viewBox="0 0 60 60" fill="none" xmlns="http://www.w3.org/2000/svg">
<rect width="60" height="60" rx="4" fill="#9DDA93"/>
<path d="M46.8624 33.3984C46.8624 34.0851 46.5844 34.7062 46.1347 35.1559C45.6844 35.6055 45.0632 35.8836 44.3772 35.8836H15.6227C14.2507 35.8836 13.1375 34.7712 13.1375 33.3984C13.1375 33.0306 13.2171 32.6822 13.36 32.3686C13.4844 32.0959 13.6559 31.8502 13.8652 31.6409C14.3156 31.1912 14.9367 30.9131 15.6227 30.9131H44.3773C45.3824 30.9131 46.2484 31.5095 46.64 32.3686C46.7829 32.6822 46.8624 33.0306 46.8624 33.3984Z" fill="#9D6E1E"/>
<path d="M46.64 32.3686C46.5156 32.6405 46.3434 32.8869 46.1348 33.0955C45.6845 33.5452 45.0633 33.8233 44.3773 33.8233H15.6228C14.6185 33.8233 13.7525 33.2269 13.36 32.3686C13.4844 32.096 13.6559 31.8503 13.8653 31.6409C14.3156 31.1913 14.9367 30.9132 15.6228 30.9132H44.3773C45.3823 30.9131 46.2483 31.5096 46.64 32.3686Z" fill="#D7A251"/>
<path d="M49 37.8897C49 41.0918 47.5176 43.4711 45.1212 45.0493C42.7241 46.6283 39.4131 47.4063 35.756 47.4063H24.244C16.9299 47.4063 11 44.2939 11 37.8897C11 37.5328 11.0888 37.1944 11.2495 36.89C11.3855 36.6305 11.5732 36.3964 11.8011 36.197C12.2956 35.7637 12.98 35.4956 13.7347 35.4956H46.2653C47.3677 35.4956 48.3179 36.0672 48.7506 36.89C48.9112 37.1945 49 37.5328 49 37.8897Z" fill="#FFD885"/>
<path d="M48.7505 36.8901C48.2345 39.0222 46.9413 40.6831 45.1212 41.882C42.7241 43.461 39.4131 44.239 35.756 44.239H24.244C17.809 44.239 12.4462 41.8303 11.2496 36.8901C11.3855 36.6305 11.5732 36.3965 11.8012 36.1971C12.2956 35.7637 12.9801 35.4957 13.7348 35.4957H46.2654C47.3678 35.4957 48.3179 36.0674 48.7505 36.8901Z" fill="#FFD885"/>
<path d="M40.5678 29.8702L34.1389 36.2991C33.9774 36.4598 33.8051 36.602 33.6228 36.7248C32.2617 37.6464 30.3968 37.505 29.1909 36.2991L22.762 29.8702H40.5678Z" fill="#FFBC2E"/>
<path d="M40.5677 29.8702L34.1388 36.2991C33.9774 36.4598 33.8051 36.602 33.6228 36.7248C33.1323 36.5579 32.6718 36.279 32.2809 35.8874L26.2638 29.8702H40.5677Z" fill="#FFBC2E"/>
<path d="M48.2784 30.7671C48.2784 31.1039 48.2228 31.4485 48.1023 31.7845C47.6303 33.1017 46.3665 33.613 45.3815 32.8853L44.2003 32.0132C43.3761 31.4037 42.3247 31.6532 41.7283 32.6003L41.678 32.6799C41.1056 33.5899 40.1075 33.8603 39.2925 33.3272L36.6474 31.5976C36.0371 31.1989 35.3055 31.2422 34.7277 31.7127L32.608 33.4369C31.9992 33.9321 31.2236 33.953 30.5986 33.4902L28.1807 31.698C27.5626 31.2399 26.7963 31.2545 26.1899 31.7366L23.9883 33.4849C23.3973 33.9538 22.6541 33.9808 22.0431 33.5567L19.1925 31.576C18.6316 31.1866 17.9557 31.1758 17.3871 31.5474L14.7281 33.2863C12.9575 33.5143 12.0962 32.2141 12.0962 32.2141C11.6721 31.4771 11.6296 30.6034 11.8591 29.8703C12.1318 28.9943 12.7923 28.3191 13.6513 28.3191H46.3496C47.1916 28.3191 47.8644 28.9842 48.1411 29.8664C48.2306 30.1491 48.2784 30.4543 48.2784 30.7671Z" fill="#72B766"/>
<path d="M48.141 29.8664C48.1294 29.905 48.1163 29.9429 48.1024 29.9815C47.6304 31.2994 46.3666 31.8109 45.3816 31.0832L44.2004 30.2102C43.3761 29.6015 42.3247 29.851 41.7283 30.7974L41.6781 30.8777C41.1056 31.7877 40.1075 32.058 39.2925 31.525L36.6475 29.7953C36.0372 29.396 35.3056 29.44 34.7278 29.9104L32.608 31.6347C31.9993 32.1299 31.2237 32.15 30.5987 31.6872L28.1807 29.895C27.5627 29.4369 26.7964 29.4524 26.19 29.9336L23.9883 31.6826C23.3973 32.1507 22.6541 32.1785 22.0431 31.7544L19.1925 29.7737C18.6316 29.3836 17.9557 29.3727 17.3871 29.7451L14.7281 31.4832C12.9575 31.7119 12.0962 30.411 12.0962 30.411C11.9965 30.2372 11.9178 30.0556 11.8591 29.8702C12.1317 28.9942 12.7923 28.319 13.6513 28.319H46.3496C47.1915 28.319 47.8644 28.9842 48.141 29.8664Z" fill="#72B766"/>
<path d="M47.6187 26.7292C47.6241 26.9864 47.5901 27.2344 47.5237 27.4685C47.2247 28.5098 46.2652 29.2715 45.1281 29.2715C40.663 29.2715 28.7701 29.1711 26.9764 29.2306C26.9362 29.2321 26.8961 29.2337 26.8567 29.2344C24.5917 29.3202 24.0756 29.6832 24.0756 30.8907V35.3087C24.0756 35.5358 23.9837 35.7421 23.8346 35.8912C23.6855 36.0403 23.48 36.1322 23.2529 36.1322C22.7979 36.1322 22.4294 36.5007 22.4294 36.9557V38.8801C22.4294 39.0755 22.4062 39.2648 22.3614 39.4471C22.1073 40.4993 21.1578 41.2803 20.0176 41.2803H19.9566C18.6602 41.2803 17.6112 40.2273 17.615 38.931L17.6259 35.4478C17.6266 35.1805 17.7356 34.9379 17.9109 34.7634C18.0871 34.588 18.3289 34.4798 18.5969 34.4798C19.1331 34.4798 19.568 34.0449 19.568 33.5088V30.8907C19.568 29.9961 18.8434 29.2715 17.9489 29.2715H14.919C13.5555 29.2715 12.4083 28.1954 12.3804 26.832C12.3526 25.433 13.479 24.2896 14.8718 24.2896H45.0787C46.4429 24.2896 47.5917 25.3657 47.6187 26.7292Z" fill="#FF6752"/>
<path d="M47.6187 26.7292C47.6241 26.9864 47.5901 27.2344 47.5237 27.4685C42.7967 27.4639 31.5017 27.3704 29.7574 27.4275C27.3905 27.5055 26.8567 27.8601 26.8567 29.0884V29.2344C24.5917 29.3202 24.0756 29.6832 24.0756 30.8907V35.3087C24.0756 35.5358 23.9837 35.7421 23.8346 35.8912C23.6855 36.0403 23.48 36.1322 23.2529 36.1322C22.7979 36.1322 22.4294 36.5007 22.4294 36.9557V38.8801C22.4294 39.0755 22.4062 39.2648 22.3614 39.4471C21.2443 39.2671 20.3922 38.296 20.3961 37.128L20.4069 33.6455C20.4077 33.3774 20.5166 33.1356 20.692 32.961C20.8681 32.7857 21.1099 32.6775 21.378 32.6775C21.9142 32.6775 22.3491 32.2426 22.3491 31.7064V29.0884C22.3491 28.1938 21.6245 27.4692 20.7299 27.4692H17.7C16.3365 27.4692 15.1893 26.3931 15.1615 25.0296C15.1561 24.7724 15.1901 24.5244 15.2573 24.2896H45.0787C46.4429 24.2896 47.5917 25.3657 47.6187 26.7292Z" fill="#FF6752"/>
<path d="M33.3674 21.7573L27.8554 27.2715C27.3031 27.8238 26.6518 28.217 25.9581 28.4496C24.2477 29.0274 22.2825 28.6342 20.9213 27.2715L15.4072 21.7573H33.3674Z" fill="#FFBC2E"/>
<path d="M33.3674 21.7573L27.8554 27.2715C27.3031 27.8238 26.6518 28.217 25.9581 28.4496C25.2651 28.217 24.6139 27.8238 24.0623 27.2715L18.5481 21.7573H33.3674Z" fill="#FFBC2E"/>
<path d="M49 22.533C49 22.5739 48.9984 22.6141 48.9961 22.6542C48.966 23.1726 48.7435 23.6399 48.399 23.9845C48.0274 24.3561 47.5144 24.5855 46.9474 24.5855H13.0526C11.9193 24.5855 11 23.6662 11 22.533C11 20.0733 12.1402 18.2215 13.8622 16.8287C15.2596 15.6977 17.041 14.8688 18.9059 14.2608C24.1235 12.5621 30 12.5937 30 12.5937C30 12.5937 49 12.491 49 22.533Z" fill="#FFD885"/>
<path d="M49 22.533C49 22.5739 48.9984 22.6141 48.9961 22.6542H17.2241C16.0909 22.6542 15.1715 21.735 15.1715 20.6016C15.1715 18.142 16.3117 16.2902 18.0337 14.8974C18.3102 14.6733 18.6015 14.4617 18.9058 14.2608C24.1235 12.5621 30 12.5937 30 12.5937C30 12.5937 49 12.491 49 22.533Z" fill="#FFD885"/>
<path d="M40.2125 16.1845C40.542 16.5332 40.5264 17.083 40.1778 17.4125C39.8291 17.7419 39.2794 17.7264 38.9499 17.3778C38.6205 17.0292 38.014 15.8211 38.3627 15.4916C38.7114 15.162 39.8831 15.8358 40.2125 16.1845Z" fill="#FFF5CC"/>
<path d="M35.6083 20.4773C35.7803 20.9251 35.5566 21.4276 35.1088 21.5995C34.661 21.7715 34.1585 21.5479 33.9865 21.1001C33.8146 20.6522 33.7136 19.3043 34.1613 19.1324C34.6092 18.9605 35.4363 20.0294 35.6083 20.4773Z" fill="#FFF5CC"/>
<path d="M30.8686 16.9048C30.8686 17.3845 30.4797 17.7733 30 17.7733C29.5202 17.7733 29.1314 17.3844 29.1314 16.9048C29.1314 16.425 29.5203 15.1306 30 15.1306C30.4797 15.1305 30.8686 16.425 30.8686 16.9048Z" fill="#FFF5CC"/>
<path d="M26.0926 21.0216C25.9727 21.486 25.4989 21.7653 25.0344 21.6454C24.57 21.5255 24.2907 21.0516 24.4106 20.5872C24.5305 20.1227 25.2308 18.9666 25.6953 19.0866C26.1598 19.2065 26.2126 20.5572 26.0926 21.0216Z" fill="#FFF5CC"/>
<path d="M21.3141 17.2381C21.1049 17.6697 20.5855 17.8502 20.1537 17.6411C19.722 17.4319 19.5415 16.9125 19.7507 16.4807C19.9598 16.049 20.8741 15.0534 21.3059 15.2627C21.7376 15.4719 21.5232 16.8064 21.3141 17.2381Z" fill="#FFF5CC"/>
</svg>
