<svg width="71" height="72" viewBox="0 0 71 72" fill="none" xmlns="http://www.w3.org/2000/svg">
<path d="M35.1785 1.00016C28.2562 0.982501 21.4841 3.01794 15.7185 6.8491C9.95302 10.6802 5.45305 16.135 2.78768 22.5237C0.122302 28.9123 -0.588768 35.9479 0.744389 42.7406C2.07755 49.5334 5.39505 55.7783 10.2774 60.6856C15.1597 65.5929 21.3876 68.9422 28.1735 70.31C34.9593 71.6778 41.9984 71.0026 48.4006 68.3699C54.8027 65.7372 60.2804 61.2651 64.1409 55.5192C68.0014 49.7733 70.0714 43.0117 70.0891 36.0893L63.1512 36.0716C63.137 41.6218 61.4774 47.0431 58.3821 51.65C55.2868 56.2569 50.895 59.8425 45.7619 61.9534C40.6288 64.0642 34.9851 64.6055 29.5443 63.5089C24.1036 62.4122 19.1103 59.7268 15.1957 55.7923C11.2812 51.8577 8.62131 46.8507 7.55242 41.4045C6.48353 35.9582 7.05365 30.3173 9.19068 25.195C11.3277 20.0728 14.9357 15.6993 19.5583 12.6276C24.1809 9.55586 29.6106 7.92389 35.1608 7.93805L35.1785 1.00016Z" fill="#CDCDCD"/>
<path d="M46.4109 69.1183C54.2492 66.4387 60.883 61.066 65.1326 53.9554C69.3822 46.8449 70.9721 38.4576 69.6195 30.2852C68.267 22.1128 64.0596 14.6849 57.7458 9.32269C51.4319 3.96046 43.4208 1.01144 35.1372 1.00009L35.1277 7.93799C41.7693 7.94709 48.1924 10.3115 53.2546 14.6108C58.3169 18.9101 61.6903 24.8656 62.7747 31.418C63.8592 37.9705 62.5844 44.6952 59.1772 50.3962C55.77 56.0972 50.4512 60.405 44.1667 62.5534L46.4109 69.1183Z" fill="#01D28E"/>
</svg>
