<svg width="60" height="60" viewBox="0 0 60 60" fill="none" xmlns="http://www.w3.org/2000/svg">
<rect width="60" height="60" rx="4" fill="#9DDA93"/>
<path d="M50 30.1849C49.9289 31.9185 49.6298 33.6351 49.1103 35.2905C48.6572 36.985 48.3517 38.7685 47.491 40.2518C46.6207 41.7573 45.1035 42.7929 43.8821 44.0141C42.6607 45.2353 41.6648 46.8201 40.1579 47.6908C38.6745 48.5491 36.8607 48.823 35.1655 49.2776C33.499 49.7417 31.7788 49.9846 30.049 50C28.3208 49.9721 26.6037 49.717 24.9421 49.2411C23.2968 48.7478 21.7245 48.0373 20.2669 47.1285C18.7288 46.3482 17.2994 45.3698 16.0152 44.2183C14.8666 42.9326 13.8914 41.5019 13.1145 39.9627C12.2559 38.4794 11.1959 37.0546 10.7428 35.3608C10.2717 33.6751 10.022 31.9352 10 30.1849C10 28.409 10.7034 26.7566 11.1414 25.1187C11.5945 23.4242 11.7497 21.6 12.6083 20.1166C13.4793 18.6118 14.9607 17.5411 16.1828 16.3219C17.4048 15.1028 18.5228 13.7002 20.0276 12.8315C21.5117 11.9732 23.289 11.738 24.9834 11.2847C26.6207 10.8452 28.2759 10 30.0503 10C31.8123 10.0192 33.5644 10.2655 35.2634 10.7327C36.9382 11.2515 38.5379 11.987 40.0221 12.9205C41.5269 13.7912 42.5903 15.2077 43.8117 16.4289C45.0331 17.6501 46.4855 18.6919 47.3559 20.1966C48.1741 21.731 48.7878 23.3661 49.1814 25.06C49.6773 26.7251 49.9526 28.4481 50 30.1849V30.1849Z" fill="#E7C897"/>
<path d="M15.5172 31.3881C15.1363 31.3881 14.8276 31.0792 14.8276 30.6981C14.8276 27.9694 16.6324 27.2484 17.5862 27.2484C17.9671 27.2461 18.2777 27.5532 18.28 27.9342C18.2823 28.3153 17.9754 28.626 17.5945 28.6283C17.3586 28.6359 16.2069 28.7711 16.2069 30.6981C16.2069 31.0792 15.8981 31.3881 15.5172 31.3881Z" fill="#D7A251"/>
<path d="M43.1034 38.2875C43.0571 38.2878 43.0109 38.2832 42.9655 38.2737C42.7862 38.2372 42.6288 38.1308 42.528 37.9782C42.4271 37.8255 42.391 37.6389 42.4276 37.4596C42.9793 34.6867 40.9538 34.1479 40.8669 34.1244C40.6263 34.066 40.4355 33.883 40.367 33.645C40.2985 33.407 40.3627 33.1505 40.5353 32.973C40.7079 32.7954 40.9624 32.7241 41.2021 32.786C42.3745 33.0799 44.4269 34.4908 43.7793 37.7301C43.716 38.0535 43.4329 38.2871 43.1034 38.2875V38.2875Z" fill="#D7A251"/>
<path d="M27.2414 44.497C26.1354 44.6001 25.0456 44.1745 24.3021 43.349C23.7976 42.632 23.6202 41.7348 23.8138 40.8797C23.905 40.5097 24.2788 40.2837 24.6486 40.375C25.0185 40.4662 25.2443 40.8402 25.1531 41.2101C25.0564 41.6572 25.1434 42.1243 25.3945 42.5065C25.8878 42.9763 26.5654 43.2003 27.2414 43.1171C27.6223 43.1171 27.931 43.426 27.931 43.8071C27.931 44.1881 27.6223 44.497 27.2414 44.497V44.497Z" fill="#D7A251"/>
<path d="M38.9655 19.6591C38.7347 19.6594 38.5191 19.5442 38.391 19.3521C38.1421 18.9371 37.7298 18.6464 37.2554 18.5514C36.7811 18.4564 36.2886 18.566 35.8993 18.8533C35.6943 18.9901 35.4319 19.0071 35.211 18.8979C34.9901 18.7887 34.8442 18.5699 34.8282 18.3239C34.8123 18.0778 34.9288 17.842 35.1338 17.7052C35.827 17.213 36.6925 17.0285 37.5262 17.1952C38.3598 17.362 39.0878 17.8652 39.5386 18.5863C39.6797 18.7979 39.693 19.07 39.5732 19.2944C39.4533 19.5187 39.2198 19.6589 38.9655 19.6591Z" fill="#D7A251"/>
<path d="M31.2676 35.5278C30.9203 35.5267 30.628 35.2675 30.5852 34.9227C30.5425 34.5779 30.7628 34.2551 31.0993 34.1693C31.7155 34.0219 32.2618 33.6657 32.6455 33.1613C32.7839 32.8923 32.7978 32.5762 32.6834 32.2961C32.6056 32.062 32.6585 31.804 32.8223 31.6195C32.9861 31.4349 33.2358 31.3518 33.4774 31.4015C33.7191 31.4511 33.9159 31.6259 33.9938 31.8601C34.2304 32.5056 34.1802 33.2216 33.8558 33.8278C33.2871 34.669 32.4252 35.2678 31.4386 35.5071C31.3827 35.5213 31.3252 35.5283 31.2676 35.5278V35.5278Z" fill="#D7A251"/>
<path d="M19.6552 23.7988C19.3391 23.7984 19.0637 23.5832 18.9869 23.2765C18.722 22.3655 18.8487 21.3853 19.3366 20.5718C19.8244 19.7582 20.6292 19.1849 21.5572 18.9899C21.9255 18.9004 22.2969 19.1249 22.389 19.4927C22.4811 19.8604 22.2593 20.2336 21.8924 20.3284C21.3236 20.4417 20.829 20.7901 20.5305 21.2876C20.232 21.7852 20.1573 22.3856 20.3248 22.9412C20.4174 23.3108 20.1929 23.6855 19.8234 23.7781C19.7684 23.792 19.7119 23.799 19.6552 23.7988Z" fill="#D7A251"/>
<path d="M40.8002 23.2936L39.5754 23.9284C38.5607 24.4542 38.1643 25.7034 38.6899 26.7185L39.3244 27.9438C39.85 28.9589 41.0987 29.3556 42.1133 28.8297L43.3382 28.195C44.3528 27.6691 44.7493 26.4199 44.2237 25.4048L43.5892 24.1795C43.0636 23.1644 41.8149 22.7678 40.8002 23.2936Z" fill="#AA7727"/>
<path d="M36.1752 39.9572L34.8814 39.4812C33.8095 39.0868 32.6211 39.6363 32.2269 40.7086L31.751 42.0029C31.3568 43.0752 31.9061 44.2641 32.9779 44.6585L34.2717 45.1346C35.3435 45.5289 36.532 44.9794 36.9262 43.9071L37.4021 42.6128C37.7963 41.5406 37.247 40.3516 36.1752 39.9572Z" fill="#AA7727"/>
<path d="M20.3351 33.0755L18.964 33.2301C17.8282 33.3581 17.0112 34.383 17.1392 35.5193L17.2937 36.8909C17.4217 38.0272 18.4462 38.8445 19.582 38.7165L20.953 38.562C22.0888 38.4339 22.9058 37.409 22.7778 36.2727L22.6233 34.9011C22.4954 33.7649 21.4709 32.9475 20.3351 33.0755Z" fill="#AA7727"/>
<path d="M30.538 14.5607L29.2042 14.2075C28.0992 13.9148 26.9664 14.5737 26.6738 15.6791L26.3207 17.0135C26.0282 18.1189 26.6868 19.2522 27.7918 19.5449L29.1256 19.8981C30.2305 20.1908 31.3634 19.5319 31.6559 18.4265L32.009 17.0921C32.3015 15.9867 31.6429 14.8534 30.538 14.5607Z" fill="#AA7727"/>
<path d="M27.0673 24.6316L25.7873 25.1463C24.7269 25.5727 24.2128 26.7783 24.639 27.8391L25.1535 29.1197C25.5797 30.1805 26.7849 30.6948 27.8452 30.2684L29.1252 29.7537C30.1856 29.3273 30.6997 28.1217 30.2735 27.0609L29.759 25.7803C29.3328 24.7195 28.1277 24.2052 27.0673 24.6316Z" fill="#AA7727"/>
</svg>
