<svg width="71" height="72" viewBox="0 0 71 72" fill="none" xmlns="http://www.w3.org/2000/svg">
<path d="M35.1785 1.00016C28.2562 0.982501 21.4841 3.01794 15.7185 6.8491C9.95302 10.6802 5.45305 16.135 2.78768 22.5237C0.122302 28.9123 -0.588768 35.9479 0.744389 42.7406C2.07755 49.5334 5.39505 55.7783 10.2774 60.6856C15.1597 65.5929 21.3876 68.9422 28.1735 70.31C34.9593 71.6778 41.9984 71.0026 48.4006 68.3699C54.8027 65.7372 60.2804 61.2651 64.1409 55.5192C68.0014 49.7733 70.0714 43.0117 70.0891 36.0893L63.1512 36.0716C63.137 41.6218 61.4774 47.0431 58.3821 51.65C55.2868 56.2569 50.895 59.8425 45.7619 61.9534C40.6288 64.0642 34.9851 64.6055 29.5443 63.5089C24.1036 62.4122 19.1103 59.7268 15.1957 55.7923C11.2812 51.8577 8.62131 46.8507 7.55242 41.4045C6.48353 35.9582 7.05365 30.3173 9.19068 25.195C11.3277 20.0728 14.9357 15.6993 19.5583 12.6276C24.1809 9.55586 29.6106 7.92389 35.1608 7.93805L35.1785 1.00016Z" fill="#CDCDCD"/>
<path d="M0.0892251 36.0001C0.0892251 42.9224 2.14194 49.6893 5.98779 55.445C9.83364 61.2007 15.2999 65.6868 21.6953 68.3358C28.0907 70.9849 35.1281 71.678 41.9174 70.3275C48.7067 68.9771 54.9431 65.6436 59.838 60.7488C64.7328 55.854 68.0662 49.6176 69.4167 42.8282C70.7672 36.0389 70.0741 29.0015 67.425 22.6061C64.7759 16.2107 60.2899 10.7445 54.5342 6.89862C48.7785 3.05277 42.0116 1.00005 35.0892 1.00005L35.0892 7.93797C40.6394 7.93797 46.0649 9.58378 50.6797 12.6673C55.2945 15.7508 58.8913 20.1335 61.0152 25.2612C63.1392 30.3888 63.6949 36.0312 62.6121 41.4747C61.5293 46.9182 58.8567 51.9184 54.9321 55.843C51.0076 59.7675 46.0074 62.4402 40.5639 63.5229C35.1204 64.6057 29.478 64.05 24.3503 61.926C19.2227 59.8021 14.84 56.2053 11.7565 51.5905C8.67295 46.9757 7.02714 41.5502 7.02714 36.0001H0.0892251Z" fill="#730068"/>
</svg>
