<svg width="31" height="30" viewBox="0 0 31 30" fill="none" xmlns="http://www.w3.org/2000/svg">
<path d="M11.4327 25.5995V21.8314C11.4327 20.8695 12.2304 20.0897 13.2145 20.0897H16.8116C17.2842 20.0897 17.7374 20.2732 18.0716 20.5998C18.4057 20.9265 18.5934 21.3695 18.5934 21.8314V25.5995C18.5904 25.9994 18.7509 26.3839 19.0391 26.6677C19.3274 26.9515 19.7196 27.1111 20.1287 27.1111H22.5828C23.729 27.114 24.8293 26.671 25.6408 25.8798C26.4523 25.0886 26.9084 24.0143 26.9084 22.8939V12.1592C26.9084 11.2542 26.498 10.3957 25.7878 9.81506L17.4392 3.29755C15.9869 2.15481 13.9062 2.1917 12.4973 3.38518L4.33915 9.81506C3.59538 10.3786 3.15084 11.2396 3.12888 12.1592V22.8829C3.12888 25.2181 5.06551 27.1111 7.45447 27.1111H9.85259C10.7023 27.1111 11.3929 26.441 11.3991 25.6104L11.4327 25.5995Z" fill="#F8F8F8"/>
</svg>
