<svg width="30" height="30" viewBox="0 0 30 30" fill="none" xmlns="http://www.w3.org/2000/svg">
<path d="M20.7885 16.4138C20.7179 16.4863 20.4512 16.7962 20.2028 17.0512C18.7463 18.655 14.947 21.28 12.9585 22.0812C12.6565 22.21 11.893 22.4825 11.485 22.5C11.0941 22.5 10.7215 22.41 10.3659 22.2275C9.92267 21.9725 9.5671 21.5713 9.37226 21.0975C9.24683 20.7688 9.052 19.785 9.052 19.7675C8.85716 18.6913 8.75 16.9425 8.75 15.01C8.75 13.1687 8.85716 11.4913 9.01668 10.3988C9.03495 10.3813 9.22979 9.15875 9.44289 8.74C9.83378 7.975 10.5973 7.5 11.4144 7.5H11.485C12.0172 7.51875 13.1363 7.99375 13.1363 8.01125C15.0177 8.81375 18.7293 11.31 20.221 12.9688C20.221 12.9688 20.6411 13.395 20.8238 13.6612C21.1087 14.0437 21.25 14.5175 21.25 14.9913C21.25 15.52 21.0905 16.0125 20.7885 16.4138" fill="white"/>
</svg>
