<svg width="60" height="60" viewBox="0 0 60 60" fill="none" xmlns="http://www.w3.org/2000/svg">
<rect width="60" height="60" rx="4" fill="#9DDA93"/>
<g clip-path="url(#clip0_10_7633)">
<path d="M41.25 29.5312V38.125C41.25 38.988 40.5505 39.6875 39.6875 39.6875C39.4026 39.6875 39.1363 39.61 38.9062 39.4768V42.8125C38.9062 43.6755 38.2067 44.375 37.3438 44.375C36.4808 44.375 35.7812 43.6755 35.7812 42.8125V34.2188C35.7812 33.3558 36.4808 32.6562 37.3438 32.6562C37.6287 32.6562 37.895 32.7337 38.125 32.867V29.5312C38.125 28.6683 38.8245 27.9688 39.6875 27.9688C40.5505 27.9688 41.25 28.6683 41.25 29.5312Z" fill="#FFD885"/>
<path d="M18.5938 26.4062C19.4567 26.4062 20.1562 27.1058 20.1562 27.9688V31.3045C20.3863 31.1713 20.6526 31.0938 20.9375 31.0938C21.8005 31.0938 22.5 31.7934 22.5 32.6563V41.2501C22.5 42.113 21.8005 42.8126 20.9375 42.8126C20.0745 42.8126 19.375 42.113 19.375 41.2501V37.9144C19.145 38.0476 18.8787 38.1251 18.5938 38.1251C17.7308 38.1251 17.0312 37.4255 17.0312 36.5626V27.9688C17.0312 27.1058 17.7308 26.4062 18.5938 26.4062Z" fill="#FFD885"/>
<path d="M45.2565 16.288C45.6722 16.7041 46.0672 17.133 46.4419 17.5736C47.3001 18.5826 47.4273 20.029 46.7724 21.1822L30.6327 49.6023C30.3315 50.1326 29.5715 50.1326 29.2704 49.6023L13.2268 21.3514C12.577 20.2073 12.6992 18.7755 13.539 17.7644C14.0723 17.1222 14.6485 16.5038 15.268 15.9134C23.6933 7.88413 37.0295 8.05327 45.2565 16.288Z" fill="#FFD885"/>
<path d="M31.6984 47.7256L17.142 22.0935C16.0697 20.2053 16.2712 17.8423 17.6573 16.1736C18.5375 15.1137 19.4883 14.0933 20.5108 13.1188C21.1486 12.511 21.8036 11.932 22.4738 11.3812C30.1381 8.4914 39.119 10.1447 45.2565 16.288C45.6722 16.7041 46.0673 17.133 46.4419 17.5736C47.3001 18.5827 47.4273 20.0291 46.7724 21.1822L31.6984 47.7256Z" fill="#FFD885"/>
<path d="M47.3442 21.5634L47.1194 21.9594C46.8354 22.4594 46.1359 22.5101 45.7809 22.0577C45.6877 21.9391 45.5935 21.8212 45.4981 21.7044C43.4395 19.1796 41.0659 17.2648 38.5295 15.9612C38.1118 16.6051 37.3871 17.0313 36.5625 17.0313C35.268 17.0313 34.2188 15.982 34.2188 14.6876C34.2188 14.5798 34.2266 14.474 34.2407 14.3701C31.3263 13.679 28.3172 13.7178 25.4113 14.4913C25.5481 14.789 25.625 15.1198 25.625 15.4688C25.625 16.7633 24.5757 17.8126 23.2813 17.8126C22.2604 17.8126 21.3924 17.1597 21.071 16.2489C18.8989 17.4526 16.854 19.114 15.0349 21.2381C14.7561 21.5637 14.4865 21.8964 14.2255 22.2354C13.8733 22.6929 13.1689 22.6433 12.8838 22.1412L12.6551 21.7384C11.9832 20.5553 12.1095 19.0747 12.978 18.0291C13.5295 17.3651 14.1253 16.7256 14.7659 16.1151C23.4783 7.81201 37.2692 7.98701 45.7766 16.5025C46.2065 16.9327 46.615 17.3763 47.0024 17.8319C47.8898 18.8753 48.0214 20.371 47.3442 21.5634Z" fill="#D7A251"/>
<path d="M16.5131 19.6612C16.0061 20.1553 15.5125 20.6802 15.0349 21.238C14.756 21.5635 14.4864 21.8962 14.2254 22.2353C13.8732 22.6928 13.1688 22.6431 12.8838 22.1411L12.655 21.7383C11.9831 20.5551 12.1094 19.0745 12.9779 18.029C13.419 17.4979 13.8899 16.9833 14.3879 16.4858C14.8428 17.6099 15.5648 18.6758 16.5131 19.6612Z" fill="#D7A251"/>
<path d="M22.5 21.9425C21.1405 21.0756 19.9666 19.9474 19.0463 18.6235C18.3338 17.5547 18.4747 16.1317 19.3829 15.2235C20.3906 14.2158 22.0243 14.2158 23.032 15.2235L23.181 15.3724C23.3625 15.554 23.657 15.554 23.8386 15.3724L23.9875 15.2235C24.9952 14.2158 26.6289 14.2158 27.6366 15.2235C28.5448 16.1317 28.6857 17.5548 27.9732 18.6235C27.0529 19.9474 25.879 21.0756 24.5196 21.9425L23.7597 22.4271C23.6072 22.5244 23.4122 22.5244 23.2597 22.4271L22.5 21.9425ZM30.7617 37.8797C29.754 36.872 28.1203 36.872 27.1126 37.8797L26.9636 38.0287C26.7821 38.2103 26.4876 38.2103 26.3061 38.0287L26.1571 37.8797C25.1494 36.872 23.5157 36.872 22.508 37.8797C21.5998 38.7879 21.4589 40.211 22.1714 41.2797C23.0917 42.6037 24.2656 43.7318 25.625 44.5988L26.3849 45.0834C26.5374 45.1806 26.7324 45.1806 26.8849 45.0834L27.6447 44.5988C29.0042 43.7318 30.1781 42.6037 31.0984 41.2797C31.8108 40.211 31.67 38.7879 30.7617 37.8797ZM42.8044 28.7245C41.7968 27.7169 40.163 27.7169 39.1554 28.7245L39.0064 28.8735C38.8248 29.0551 38.5304 29.0551 38.3488 28.8735L38.1998 28.7245C37.1922 27.7169 35.5584 27.7169 34.5507 28.7245C33.6425 29.6328 33.5016 31.0558 34.2141 32.1245C35.1344 33.4485 36.3083 34.5767 37.6678 35.4436L38.4276 35.9282C38.5801 36.0255 38.7751 36.0255 38.9276 35.9282L39.6875 35.4436C41.0469 34.5767 42.2208 33.4485 43.1411 32.1245C43.8536 31.0558 43.7127 29.6328 42.8044 28.7245Z" fill="#FF4C33"/>
<path d="M22.5 21.9425C21.1405 21.0755 19.9666 19.9473 19.0463 18.6234C18.3338 17.5547 18.4747 16.1316 19.3829 15.2234C20.1726 14.4338 21.3468 14.2631 22.3028 14.7112C22.1175 14.8377 21.941 14.9823 21.7765 15.1467C20.4899 16.4334 20.2903 18.4493 21.2996 19.9632C21.9348 20.877 22.656 21.7245 23.4506 22.4959C23.3839 22.4873 23.3186 22.4646 23.2597 22.427L22.5 21.9425ZM24.4247 42.6195C23.4154 41.1055 23.615 39.0895 24.9016 37.803C25.066 37.6386 25.2426 37.494 25.4279 37.3674C24.4718 36.9194 23.2977 37.09 22.508 37.8797C21.5998 38.788 21.4589 40.211 22.1714 41.2797C23.0917 42.6036 24.2656 43.7318 25.625 44.5988L26.3849 45.0833C26.4438 45.1209 26.5091 45.1435 26.5757 45.1521C25.7811 44.3807 25.0599 43.5333 24.4247 42.6195ZM36.4674 33.4643C35.4581 31.9503 35.6577 29.9344 36.9443 28.6478C37.1087 28.4834 37.2854 28.3388 37.4706 28.2123C36.5146 27.7642 35.3404 27.9348 34.5507 28.7245C33.6425 29.6327 33.5016 31.0559 34.2141 32.1245C35.1344 33.4485 36.3083 34.5766 37.6678 35.4436L38.4276 35.9281C38.4865 35.9657 38.5518 35.9884 38.6185 35.997C37.8238 35.2255 37.1027 34.3781 36.4674 33.4643Z" fill="#FF4C33"/>
<path d="M29.5312 31.875C29.5312 32.738 28.8317 33.4375 27.9688 33.4375C27.1058 33.4375 26.4062 32.738 26.4062 31.875C26.4062 31.012 27.1058 30.3125 27.9688 30.3125C28.8317 30.3125 29.5312 31.012 29.5312 31.875ZM23.2812 25.625C22.4183 25.625 21.7188 26.3245 21.7188 27.1875C21.7188 28.0505 22.4183 28.75 23.2812 28.75C24.1442 28.75 24.8438 28.0505 24.8438 27.1875C24.8438 26.3245 24.1442 25.625 23.2812 25.625ZM38.125 20.9375C37.262 20.9375 36.5625 21.637 36.5625 22.5C36.5625 23.363 37.262 24.0625 38.125 24.0625C38.988 24.0625 39.6875 23.363 39.6875 22.5C39.6875 21.637 38.988 20.9375 38.125 20.9375ZM31.0938 20.9375C29.7993 20.9375 28.75 21.9868 28.75 23.2812C28.75 24.5757 29.7993 25.625 31.0938 25.625C32.3882 25.625 33.4375 24.5757 33.4375 23.2812C33.4375 21.9868 32.3882 20.9375 31.0938 20.9375Z" fill="#7CBC71"/>
</g>
<defs>
<clipPath id="clip0_10_7633">
<rect width="40" height="40" fill="white" transform="translate(10 10)"/>
</clipPath>
</defs>
</svg>
