<svg width="71" height="72" viewBox="0 0 71 72" fill="none" xmlns="http://www.w3.org/2000/svg">
<path d="M35.1785 1.00016C28.2562 0.982501 21.4841 3.01794 15.7185 6.8491C9.95302 10.6802 5.45305 16.135 2.78768 22.5237C0.122302 28.9123 -0.588768 35.9479 0.744389 42.7406C2.07755 49.5334 5.39505 55.7783 10.2774 60.6856C15.1597 65.5929 21.3876 68.9422 28.1735 70.31C34.9593 71.6778 41.9984 71.0026 48.4006 68.3699C54.8027 65.7372 60.2804 61.2651 64.1409 55.5192C68.0014 49.7733 70.0714 43.0117 70.0891 36.0893L63.1512 36.0716C63.137 41.6218 61.4774 47.0431 58.3821 51.65C55.2868 56.2569 50.895 59.8425 45.7619 61.9534C40.6288 64.0642 34.9851 64.6055 29.5443 63.5089C24.1036 62.4122 19.1103 59.7268 15.1957 55.7923C11.2812 51.8577 8.62131 46.8507 7.55242 41.4045C6.48353 35.9582 7.05365 30.3173 9.19068 25.195C11.3277 20.0728 14.9357 15.6993 19.5583 12.6276C24.1809 9.55586 29.6106 7.92389 35.1608 7.93805L35.1785 1.00016Z" fill="#CDCDCD"/>
<path d="M29.9486 70.6205C34.7066 71.327 39.5592 71.0451 44.2035 69.7925C48.8478 68.5399 53.184 66.3434 56.9415 63.3401C60.6989 60.3369 63.797 56.5913 66.0423 52.3373C68.2876 48.0833 69.632 43.4121 69.9914 38.6153C70.3508 33.8185 69.7176 28.9992 68.1314 24.458C66.5451 19.9169 64.0398 15.7515 60.7718 12.2218C57.5038 8.69212 53.5434 5.87395 49.1377 3.9432C44.7319 2.01246 39.9755 1.01059 35.1653 1.00014L35.1502 7.93803C39.0069 7.94641 42.8205 8.74969 46.3529 10.2977C49.8853 11.8457 53.0607 14.1053 55.6808 16.9353C58.301 19.7653 60.3097 23.105 61.5815 26.746C62.8534 30.3869 63.3611 34.251 63.0729 38.0969C62.7847 41.9428 61.7068 45.6881 59.9066 49.0988C58.1064 52.5096 55.6224 55.5127 52.6098 57.9206C49.5971 60.3286 46.1205 62.0897 42.3968 63.094C38.6732 64.0983 34.7825 64.3243 30.9676 63.7578L29.9486 70.6205Z" fill="#F6F078"/>
</svg>
