<svg width="28" height="28" viewBox="0 0 28 28" fill="none" xmlns="http://www.w3.org/2000/svg">
<path fill-rule="evenodd" clip-rule="evenodd" d="M23.8027 15.8435C24.22 16.0651 24.5419 16.4151 24.7684 16.7651C25.2096 17.4885 25.1738 18.3751 24.7446 19.1568L23.91 20.5568C23.4689 21.3035 22.6462 21.7701 21.7997 21.7701C21.3824 21.7701 20.9174 21.6535 20.5358 21.4201C20.2258 21.2218 19.8682 21.1518 19.4866 21.1518C18.3063 21.1518 17.3167 22.1201 17.2809 23.2751C17.2809 24.6168 16.184 25.6668 14.8129 25.6668H13.1914C11.8083 25.6668 10.7114 24.6168 10.7114 23.2751C10.6876 22.1201 9.69798 21.1518 8.51762 21.1518C8.12417 21.1518 7.76648 21.2218 7.46841 21.4201C7.08688 21.6535 6.60997 21.7701 6.20459 21.7701C5.34615 21.7701 4.52347 21.3035 4.08232 20.5568L3.25965 19.1568C2.8185 18.3985 2.79466 17.4885 3.2358 16.7651C3.42657 16.4151 3.78425 16.0651 4.18963 15.8435C4.52347 15.6801 4.73808 15.4118 4.94077 15.0968C5.53691 14.0935 5.17923 12.7751 4.16578 12.1801C2.98542 11.5151 2.60389 10.0335 3.28349 8.87846L4.08232 7.5018C4.77385 6.3468 6.25228 5.93847 7.44456 6.61513C8.48185 7.17513 9.82913 6.8018 10.4372 5.81013C10.628 5.48347 10.7353 5.13347 10.7114 4.78347C10.6876 4.32847 10.8187 3.8968 11.0453 3.5468C11.4864 2.82347 12.2852 2.3568 13.1556 2.33347H14.8367C15.719 2.33347 16.5178 2.82347 16.959 3.5468C17.1736 3.8968 17.3167 4.32847 17.2809 4.78347C17.2571 5.13347 17.3644 5.48347 17.5551 5.81013C18.1632 6.8018 19.5105 7.17513 20.5597 6.61513C21.74 5.93847 23.2304 6.3468 23.91 7.5018L24.7088 8.87846C25.4004 10.0335 25.0188 11.5151 23.8265 12.1801C22.8131 12.7751 22.4554 14.0935 23.0635 15.0968C23.2542 15.4118 23.4689 15.6801 23.8027 15.8435ZM10.628 14.0118C10.628 15.8435 12.1422 17.3018 14.0141 17.3018C15.886 17.3018 17.3644 15.8435 17.3644 14.0118C17.3644 12.1801 15.886 10.7101 14.0141 10.7101C12.1422 10.7101 10.628 12.1801 10.628 14.0118Z" fill="#F8F8F8"/>
</svg>
