<svg width="28" height="28" viewBox="0 0 28 28" fill="none" xmlns="http://www.w3.org/2000/svg">
<path d="M20.9049 16.7068C20.6027 16.9996 20.4639 17.4231 20.5327 17.8384L21.5699 23.5784C21.6574 24.0649 21.4521 24.5573 21.0449 24.8384C20.6459 25.1301 20.1151 25.1651 19.6799 24.9318L14.5127 22.2368C14.3331 22.1411 14.1336 22.0898 13.9294 22.0839H13.6132C13.5036 22.1003 13.3962 22.1353 13.2982 22.1889L8.12991 24.8968C7.87441 25.0251 7.58507 25.0706 7.30157 25.0251C6.61091 24.8944 6.15007 24.2364 6.26324 23.5423L7.30157 17.8023C7.37041 17.3834 7.23157 16.9576 6.92941 16.6601L2.71657 12.5768C2.36424 12.2349 2.24174 11.7216 2.40274 11.2584C2.55907 10.7964 2.95807 10.4593 3.43991 10.3834L9.23824 9.54228C9.67924 9.49678 10.0666 9.22844 10.2649 8.83178L12.8199 3.59345C12.8806 3.47678 12.9587 3.36945 13.0532 3.27845L13.1582 3.19678C13.2131 3.13611 13.2761 3.08595 13.3461 3.04511L13.4732 2.99845L13.6716 2.91678H14.1627C14.6014 2.96228 14.9876 3.22478 15.1894 3.61678L17.7782 8.83178C17.9649 9.21328 18.3277 9.47811 18.7466 9.54228L24.5449 10.3834C25.0349 10.4534 25.4444 10.7918 25.6066 11.2584C25.7594 11.7263 25.6276 12.2396 25.2682 12.5768L20.9049 16.7068Z" fill="#F8F8F8"/>
</svg>
