<svg width="28" height="28" viewBox="0 0 28 28" fill="none" xmlns="http://www.w3.org/2000/svg">
<circle cx="14" cy="14" r="13" fill="#FF9385" stroke="white" stroke-width="2"/>
<path d="M8.47888 16.4689H19.5113L19.4794 16.7888C19.3807 17.5782 18.8194 18.0392 18.249 18.0392H9.74113C9.09646 18.0392 8.59183 17.4841 8.51146 16.7946C8.51057 16.7875 8.515 16.8312 8.47888 16.4689V16.4689Z" fill="white"/>
<path d="M19.9924 11.6478L19.5816 15.7657H8.40907L8.00787 11.7352C7.90048 10.79 8.91994 10.3532 9.39059 10.894C10.5229 12.1997 10.6441 12.4574 11.0245 12.4121C11.1675 12.3947 11.2697 12.3306 11.3545 12.2524C13.6599 10.0406 13.5091 10.1839 13.5329 10.1651C13.8431 9.92641 14.2422 9.96578 14.4759 10.1604C16.8054 12.1178 16.6974 12.0316 16.7494 12.0612C16.9669 12.1862 17.2234 12.1703 17.4427 11.9553C18.7372 10.6833 18.6551 10.7625 18.6791 10.7433C19.2713 10.2822 20.0872 10.818 19.9924 11.6478V11.6478Z" fill="white"/>
</svg>
