<svg width="28" height="28" viewBox="0 0 28 28" fill="none" xmlns="http://www.w3.org/2000/svg">
<path fill-rule="evenodd" clip-rule="evenodd" d="M10.4134 19.1217H16.6972C17.1708 19.1217 17.5635 18.725 17.5635 18.2467C17.5635 17.7683 17.1708 17.3833 16.6972 17.3833H10.4134C9.93979 17.3833 9.54705 17.7683 9.54705 18.2467C9.54705 18.725 9.93979 19.1217 10.4134 19.1217ZM14.3177 11.55H10.4134C9.93979 11.55 9.54705 11.9467 9.54705 12.425C9.54705 12.9033 9.93979 13.2883 10.4134 13.2883H14.3177C14.7913 13.2883 15.184 12.9033 15.184 12.425C15.184 11.9467 14.7913 11.55 14.3177 11.55ZM22.5611 10.5299C22.8326 10.5268 23.1283 10.5233 23.3969 10.5233C23.6857 10.5233 23.9167 10.7567 23.9167 11.0483V20.4283C23.9167 23.3217 21.5949 25.6667 18.7302 25.6667H9.53552C6.53222 25.6667 4.08337 23.205 4.08337 20.1717V7.59501C4.08337 4.70168 6.41671 2.33334 9.29294 2.33334H15.4613C15.7616 2.33334 15.9926 2.57834 15.9926 2.87001V6.62668C15.9926 8.76168 17.7368 10.5117 19.8507 10.5233C20.3445 10.5233 20.7797 10.527 21.1607 10.5303C21.457 10.5328 21.7205 10.535 21.953 10.535C22.1174 10.535 22.3306 10.5326 22.5611 10.5299ZM22.8797 8.82701C21.9302 8.83051 20.8109 8.82701 20.0058 8.81884C18.7282 8.81884 17.6759 7.75601 17.6759 6.46568V3.39034C17.6759 2.88751 18.28 2.63784 18.6254 3.00067C19.2505 3.65711 20.1094 4.55942 20.9645 5.45763C21.8175 6.35373 22.6667 7.24576 23.2759 7.88551C23.6132 8.23901 23.366 8.82584 22.8797 8.82701Z" fill="#F8F8F8"/>
</svg>
