<svg width="50" height="50" viewBox="0 0 50 50" fill="none" xmlns="http://www.w3.org/2000/svg">
<path d="M25 9.375C27.1574 9.375 28.9062 7.62611 28.9062 5.46875C28.9062 3.31139 27.1574 1.5625 25 1.5625C22.8426 1.5625 21.0938 3.31139 21.0938 5.46875C21.0938 7.62611 22.8426 9.375 25 9.375Z" fill="#EE2B47" stroke="#EE2B47" stroke-width="2" stroke-miterlimit="10"/>
<path d="M19.4629 28.8691L16.4941 45.6855C16.4408 45.9889 16.4477 46.2997 16.5145 46.6004C16.5814 46.901 16.7068 47.1855 16.8837 47.4376C17.0605 47.6898 17.2853 47.9046 17.5452 48.0698C17.8051 48.235 18.0951 48.3473 18.3984 48.4004C18.7006 48.4541 19.0105 48.4474 19.3101 48.3806C19.6097 48.3137 19.893 48.1881 20.1437 48.011C20.3944 47.8339 20.6074 47.6088 20.7705 47.3487C20.9336 47.0887 21.0435 46.7989 21.0938 46.4961L23.1445 34.7871V34.8066C23.1445 34.8066 23.6523 31.6328 24.8535 31.6328H25.1563C26.377 31.6328 26.8652 34.8066 26.8652 34.8066V34.7969L28.916 46.5059C29.0248 47.1158 29.3714 47.6576 29.8796 48.0119C30.3879 48.3663 31.016 48.5043 31.626 48.3955C32.2359 48.2867 32.7777 47.9401 33.1321 47.4319C33.4864 46.9237 33.6244 46.2955 33.5156 45.6855L30.5469 28.8691L30.0684 25.9688C29.7852 24.2012 29.6582 21.3203 30.1172 20.1387C30.5078 19.123 31.4971 18.752 32.3828 18.752H41.4062C42.0279 18.752 42.624 18.505 43.0635 18.0655C43.5031 17.6259 43.75 17.0298 43.75 16.4082C43.75 15.7866 43.5031 15.1905 43.0635 14.7509C42.624 14.3114 42.0279 14.0645 41.4062 14.0645H8.59375C7.97215 14.0645 7.37601 14.3114 6.93647 14.7509C6.49693 15.1905 6.25 15.7866 6.25 16.4082C6.25 17.0298 6.49693 17.6259 6.93647 18.0655C7.37601 18.505 7.97215 18.752 8.59375 18.752H17.627C18.5283 18.752 19.502 19.123 19.8926 20.1387C20.3516 21.3203 20.2246 24.2012 19.9414 25.9688L19.4629 28.8691Z" fill="#EE2B47" stroke="#EE2B47" stroke-width="2" stroke-miterlimit="10"/>
</svg>
