<svg width="50" height="50" viewBox="0 0 50 50" fill="none" xmlns="http://www.w3.org/2000/svg">
<g clip-path="url(#clip0_28_8843)">
<path d="M28.125 11.4583C30.4167 11.4583 32.2917 9.58333 32.2917 7.29167C32.2917 5 30.4167 3.125 28.125 3.125C25.8333 3.125 23.9583 5 23.9583 7.29167C23.9583 9.58333 25.8333 11.4583 28.125 11.4583ZM20.4167 18.5417L14.5833 47.9167H18.9583L22.7083 31.25L27.0833 35.4167V47.9167H31.25V32.2917L26.875 28.125L28.125 21.875C30.8333 25 35 27.0833 39.5833 27.0833V22.9167C35.625 22.9167 32.2917 20.8333 30.625 17.9167L28.5417 14.5833C27.375 12.7292 25.0417 11.9792 23.0208 12.8333L12.5 17.2917V27.0833H16.6667V20L20.4167 18.5417Z" fill="#EE2B47"/>
</g>
<defs>
<clipPath id="clip0_28_8843">
<rect width="50" height="50" fill="white"/>
</clipPath>
</defs>
</svg>
